<?xml version="1.0" encoding="UTF-8"?>
<svg version="1.1" xmlns="http://www.w3.org/2000/svg" width="512" height="512">
<path d="M0 0 C168.96 0 337.92 0 512 0 C512 168.96 512 337.92 512 512 C343.04 512 174.08 512 0 512 C0 343.04 0 174.08 0 0 Z " fill="#18307F" transform="translate(0,0)"/>
<path d="M0 0 C4.93255676 3.96674145 9.19677017 7.92902689 13 13 C13.33 6.07 13.66 -0.86 14 -8 C21.92 -8 29.84 -8 38 -8 C38.09285548 11.6896247 38.16411079 31.37918694 38.20724869 51.06898594 C38.22781658 60.21265205 38.25582588 69.35617907 38.30175781 78.49975586 C38.34180332 86.47538174 38.36747469 94.4509068 38.37635398 102.42663044 C38.38153895 106.64423835 38.39360292 110.86155802 38.42292023 115.07907295 C38.45037042 119.06080903 38.4583863 123.04214221 38.45243073 127.02396393 C38.4535179 128.47382496 38.46129382 129.92370156 38.4768219 131.37347984 C38.66175035 149.55391143 33.95889699 166.52023915 21.16796875 180.00390625 C5.51449233 194.41638634 -13.88532417 198.81091548 -34.64550781 198.13623047 C-49.86637822 197.25555381 -63.98782964 192.4532397 -76 183 C-77.25296875 182.05640625 -77.25296875 182.05640625 -78.53125 181.09375 C-86.41580978 174.40684487 -91.36001575 164.88724872 -94 155 C-94 153.02 -94 151.04 -94 149 C-86.41 149 -78.82 149 -71 149 C-69.56770833 151.70182292 -68.13541667 154.40364583 -66.703125 157.10546875 C-61.76846137 165.49213332 -54.40114531 170.76825018 -45.1875 173.875 C-31.89854155 177.26032011 -17.399528 177.16089943 -5.21875 170.41796875 C4.2932266 164.33901187 8.78860215 156.73481346 12 146 C12.90702007 141.49167214 13.11664263 137.22751733 13.09765625 132.6328125 C13.0962413 131.95322479 13.09482635 131.27363708 13.09336853 130.57345581 C13.08781518 128.42392388 13.07527169 126.27449992 13.0625 124.125 C13.05747896 122.65885568 13.05291711 121.19270971 13.04882812 119.7265625 C13.03786111 116.15100717 13.02062919 112.57551414 13 109 C12.4119458 109.67764404 11.8238916 110.35528809 11.21801758 111.0534668 C10.43064209 111.94718994 9.6432666 112.84091309 8.83203125 113.76171875 C8.05835205 114.64561279 7.28467285 115.52950684 6.48754883 116.44018555 C-4.06064124 127.29481042 -18.63974567 132.02778988 -33.40161133 132.29248047 C-43.65499175 132.35742039 -52.53116809 132.31508197 -62 128 C-62.92296875 127.59910156 -63.8459375 127.19820312 -64.796875 126.78515625 C-76.24722499 121.20553655 -85.5256465 111.87761005 -92 101 C-92.45890625 100.24589844 -92.9178125 99.49179687 -93.390625 98.71484375 C-103.75396589 80.01712931 -104.30517399 56.28323551 -99 36 C-93.59523312 19.36994807 -82.95673196 5.06448964 -67.53149414 -3.41674805 C-46.78079076 -13.96081598 -19.33743805 -13.3513419 0 0 Z " fill="#FBFBFC" transform="translate(159,192)"/>
<path d="M0 0 C8.58 0 17.16 0 26 0 C26.93953125 3.62264572 27.87906201 7.24529155 28.81854248 10.86795044 C29.44751191 13.29326786 30.07649381 15.71858205 30.705513 18.14388657 C33.28324828 28.08285011 35.85992759 38.02208568 38.43432617 47.96191406 C39.39885064 51.68556634 40.36346111 55.40919634 41.328125 59.1328125 C41.56879511 60.06185394 41.80946522 60.99089539 42.05742836 61.9480896 C45.08655558 73.63955966 48.12697194 85.32798479 51.18397713 97.01219559 C52.404863 101.68146308 53.62157449 106.35182049 54.83883667 111.02203369 C55.48601145 113.49993924 56.13535192 115.9772802 56.78689575 118.45404053 C57.68234922 121.85859938 58.57051877 125.26497903 59.45703125 128.671875 C59.84921844 130.15057571 59.84921844 130.15057571 60.24932861 131.65914917 C60.48262878 132.56150299 60.71592896 133.46385681 60.95629883 134.39355469 C61.15943192 135.16850281 61.362565 135.94345093 61.57185364 136.74188232 C62.03918099 139.2066473 62.0738075 141.49707103 62 144 C62.66 144 63.32 144 64 144 C64.11768738 143.02084625 64.23537476 142.0416925 64.35662842 141.03286743 C64.9743311 136.73483835 66.09907393 132.64282501 67.29394531 128.47412109 C67.52680237 127.64805359 67.75965942 126.82198608 67.99957275 125.97088623 C68.77139238 123.23714745 69.54969124 120.50529959 70.328125 117.7734375 C70.87884056 115.82868511 71.42918697 113.88382816 71.97918701 111.93887329 C73.13996005 107.83753509 74.30366491 103.7370447 75.46972656 99.63720703 C76.92210629 94.53067006 78.36982724 89.42283035 79.81554413 84.31440353 C87.77811753 56.18092497 95.85996902 28.0826017 104 0 C112.91 0 121.82 0 131 0 C134.37499433 10.124983 134.37499433 10.124983 135.32522583 13.61865234 C135.54352554 14.4163353 135.76182526 15.21401825 135.98674011 16.03587341 C136.21428482 16.87739456 136.44182953 17.71891571 136.67626953 18.5859375 C136.92559738 19.49984756 137.17492523 20.41375763 137.43180847 21.35536194 C138.25122013 24.36125743 139.06702861 27.36811812 139.8828125 30.375 C140.46208636 32.50274666 141.04158907 34.63043103 141.62130737 36.75805664 C143.14897561 42.36712733 144.67360522 47.97701952 146.1975708 53.58709717 C147.71588437 59.17443116 149.23693072 64.76102089 150.7578125 70.34765625 C153.09800726 78.94495186 155.43675503 87.54263959 157.77441406 96.140625 C160.63396202 106.65753576 163.49863384 117.17304225 166.3671875 127.6875 C166.55904758 128.39075409 166.75090767 129.09400818 166.9485817 129.818573 C167.96548523 133.54577973 168.98261653 137.27292424 170 141 C172.14743207 137.26294287 173.0978299 133.24792146 174.14794922 129.10595703 C174.35350748 128.3103987 174.55906574 127.51484037 174.77085304 126.69517422 C175.45307678 124.05046813 176.12886189 121.40416013 176.8046875 118.7578125 C177.28494797 116.8910836 177.76562818 115.02446264 178.2467041 113.15794373 C179.26637818 109.19840761 180.28330825 105.2381812 181.29803467 101.27737427 C182.87062424 95.13936169 184.44953281 89.00298698 186.02978516 82.86694336 C187.84259099 75.82663902 189.6543624 68.78607107 191.46425438 61.74501705 C194.83536027 48.63101927 198.21872203 35.52029833 201.63189697 22.41717529 C202.36055882 19.61797665 203.08633521 16.81804019 203.81201172 14.01806641 C204.23644606 12.38829228 204.661072 10.75856803 205.0859375 9.12890625 C205.27023315 8.41560654 205.45452881 7.70230682 205.64440918 6.96739197 C206.88536045 2.22927911 206.88536045 2.22927911 208 0 C216.58 0 225.16 0 234 0 C231.22885247 11.36045642 228.16965512 22.5892238 224.87890625 33.80859375 C224.38067215 35.51610232 223.88274591 37.22370075 223.38510132 38.93138123 C222.32834673 42.55586935 221.26986419 46.17984608 220.20993042 49.80340576 C217.69233076 58.41091837 215.18406561 67.02115265 212.67550087 75.63130188 C212.10417474 77.59215855 211.53274154 79.55298403 210.96120262 81.51377869 C204.9063127 102.28736196 198.91200549 123.07817547 192.9375 143.875 C192.47454582 145.48615739 192.01158404 147.0973126 191.5486145 148.70846558 C189.03064028 157.47180352 186.51501044 166.23581011 184 175 C174.76 175 165.52 175 156 175 C155.1020874 171.85404297 155.1020874 171.85404297 154.18603516 168.64453125 C148.38052598 148.3088593 142.55725653 127.97834748 136.71289062 107.65380859 C135.81673845 104.53713135 134.92126226 101.42026108 134.02636719 98.30322266 C128.43888266 78.84212519 122.79534453 59.40038845 117 40 C114.38899473 46.674811 112.27614644 53.44899427 110.21875 60.3125 C109.85235916 61.52739609 109.48596832 62.74229218 109.10847473 63.9940033 C108.10989539 67.30603298 107.11489112 70.61912661 106.12070084 73.93247604 C105.49872826 76.00423609 104.87569865 78.07567519 104.25228882 80.14700317 C94.74440039 111.73773851 85.36328216 143.36615646 76 175 C67.09 175 58.18 175 49 175 C45.62556201 166.0014987 45.62556201 166.0014987 44.37207031 161.42626953 C44.08529922 160.38712906 43.79852814 159.34798859 43.50306702 158.27735901 C43.19783615 157.15715866 42.89260529 156.03695831 42.578125 154.8828125 C42.06617766 153.02350901 41.55422602 151.16420671 41.04213047 149.30494404 C40.49132655 147.30270275 39.94225555 145.2999933 39.39364624 143.29714966 C37.6185491 136.81800518 35.83162 130.34212049 34.04472923 123.86622047 C33.61894307 122.32308975 33.1932765 120.77992603 32.76772499 119.23673058 C27.13872457 98.82730293 21.4131405 78.44498386 15.6875 58.0625 C15.18533825 56.27468 14.68318163 54.48685856 14.18103027 52.69903564 C13.93629188 51.82771342 13.69155348 50.9563912 13.43939877 50.05866528 C12.95290781 48.32662053 12.46643518 46.59457064 11.97998142 44.86251545 C10.85825061 40.86857492 9.73624865 36.87471132 8.61338806 32.88108826 C7.61448864 29.32787013 6.61829664 25.77389978 5.62295151 22.2196846 C4.94613713 19.80807723 4.26543055 17.39758254 3.58486938 14.98703003 C3.12132671 13.33700681 2.65789406 11.68695268 2.19458008 10.03686523 C1.97493686 9.26222207 1.75529364 8.48757891 1.52899456 7.68946171 C0 2.2269701 0 2.2269701 0 0 Z " fill="#FBFBFC" transform="translate(221,147)"/>
<path d="M0 0 C0.716185 -0.01328842 1.43237 -0.02657684 2.17025757 -0.04026794 C4.53004149 -0.07884915 6.88920814 -0.09454432 9.24926758 -0.10668945 C10.89968493 -0.12142224 12.55010098 -0.13630187 14.20051575 -0.15132141 C17.65959576 -0.17828753 21.11846137 -0.19185394 24.57763672 -0.19824219 C28.9886461 -0.20908727 33.3973541 -0.27072344 37.80768871 -0.34495831 C41.2180577 -0.39358123 44.62788266 -0.40577742 48.0385685 -0.40830421 C49.66320342 -0.41549101 51.28783974 -0.43579763 52.91213036 -0.47000694 C62.27148832 -0.65200889 68.82473263 -0.17533031 76.02607727 6.5533905 C78.80111731 9.71476632 78.85981064 11.75867576 78.96264648 15.8918457 C78.99162018 17.02707672 79.02059387 18.16230774 79.05044556 19.3319397 C79.13507937 23.85580374 79.20781591 28.37964862 79.25473976 32.90407753 C79.29043842 36.33508135 79.34356932 39.76372764 79.44018555 43.19360352 C79.55133806 47.15194505 79.58808364 51.10928739 79.62036133 55.0690918 C79.66367584 56.2902066 79.70699036 57.51132141 79.75161743 58.7694397 C79.7332383 67.09474945 79.7332383 67.09474945 76.78118896 71.04095459 C70.89071602 76.4849669 66.96968262 77.60577704 59.06958008 77.4675293 C57.07356677 77.46950849 55.07755266 77.47154833 53.08154297 77.47583008 C51.7151988 77.47033171 50.34883234 77.45065761 48.98291016 77.41625977 C40.48537438 77.13832753 40.48537438 77.13832753 32.89233398 80.40600586 C30.65208327 82.6577592 28.6922962 84.99258616 26.70629883 87.4675293 C25.31635931 88.7471826 23.90317839 90.00262848 22.45629883 91.2175293 C20.14543205 93.18451709 18.00857351 95.1713035 15.95629883 97.4050293 C13.70629883 99.4675293 13.70629883 99.4675293 9.70629883 99.4675293 C9.70629883 92.2075293 9.70629883 84.9475293 9.70629883 77.4675293 C4.99475422 77.54616699 4.99475422 77.54616699 0.28369141 77.64770508 C-4.64957374 77.68900993 -8.31948847 77.27685291 -12.02416992 73.8815918 C-12.74540039 72.99600586 -12.74540039 72.99600586 -13.48120117 72.0925293 C-14.2140332 71.21467773 -14.2140332 71.21467773 -14.96166992 70.3190918 C-17.7035012 66.50786591 -18.54280778 63.77634359 -18.52075195 59.05639648 C-18.52060089 57.975578 -18.52044983 56.89475952 -18.52029419 55.78118896 C-18.50997162 54.62065002 -18.49964905 53.46011108 -18.48901367 52.2644043 C-18.48618378 51.07147766 -18.48335388 49.87855103 -18.48043823 48.6494751 C-18.4692417 44.83872454 -18.4441377 41.02820885 -18.41870117 37.2175293 C-18.40867071 34.63419936 -18.39954497 32.05086573 -18.39135742 29.4675293 C-18.36930406 23.1341158 -18.33583153 16.80083933 -18.29370117 10.4675293 C-17.30370117 10.1375293 -16.31370117 9.8075293 -15.29370117 9.4675293 C-14.83995117 8.5187793 -14.38620117 7.5700293 -13.91870117 6.5925293 C-10.77641434 0.54967001 -6.44411616 0.08718488 0 0 Z " fill="#E95569" transform="translate(375.293701171875,64.532470703125)"/>
<path d="M0 0 C0.53753906 0.39574219 1.07507813 0.79148438 1.62890625 1.19921875 C2.89734375 2.03453125 2.89734375 2.03453125 4.19140625 2.88671875 C13.98719341 12.18015785 19.00051707 24.38752812 19.8515625 37.67578125 C20.22149038 53.21275231 17.21787589 67.88629797 6.3671875 79.578125 C-3.79750162 89.05755418 -15.29986974 92.88707152 -29.05712891 92.73803711 C-41.62052621 92.17187543 -51.67934581 86.39211081 -60.14453125 77.29296875 C-68.28868662 67.20579154 -71.76818345 55.2247151 -71.68359375 42.44921875 C-71.6786792 41.57031982 -71.67376465 40.6914209 -71.66870117 39.78588867 C-71.40467476 25.0721709 -66.8806438 14.20494228 -56.8203125 3.49609375 C-41.42678029 -10.93994603 -17.23800576 -11.98383281 0 0 Z " fill="#18307F" transform="translate(153.37109375,210.80078125)"/>
<path d="M0 0 C3.0603333 1.7655769 5.50587755 3.50587755 8 6 C10.06874034 6.6425235 10.06874034 6.6425235 12 7 C12.2475 6.401875 12.495 5.80375 12.75 5.1875 C14.2542674 2.55503205 15.32507908 1.4459032 18 0 C21.62628643 -0.6276265 23.95572905 -0.59088641 27.1953125 1.2421875 C32.7473467 5.24204009 32.7473467 5.24204009 34 9 C34.38970294 12.38484841 34.50133024 15.62322391 34 19 C31.9375 20.625 31.9375 20.625 29 22 C27.14691919 23.98130739 25.44857771 26.04876159 23.74609375 28.16015625 C21.93363767 30.06992541 20.35368914 30.88798161 18 32 C17.690625 32.61875 17.38125 33.2375 17.0625 33.875 C15.54805574 36.90388852 13.90475199 38.28355564 11 40 C4.71626549 39.44144582 1.06138185 34.34846498 -3 30 C-3.86625 29.175 -4.7325 28.35 -5.625 27.5 C-14.57780458 18.07599517 -14.57780458 18.07599517 -15.4375 11.8125 C-14.8661751 6.83381162 -12.74961876 4.22959864 -9 1 C-5.64870516 -0.11709828 -3.51689744 -0.34479387 0 0 Z " fill="#FEF1F2" transform="translate(396,85)"/>
<path d="M0 0 C0.99 0 1.98 0 3 0 C3.00364563 0.61308014 3.00729126 1.22616028 3.01104736 1.8578186 C3.05291953 8.24983366 3.12229845 14.64113384 3.20751953 21.03271484 C3.23571195 23.41675663 3.25693503 25.80089158 3.27099609 28.18505859 C3.29244869 31.61604452 3.33911364 35.04591224 3.390625 38.4765625 C3.39185364 39.53928375 3.39308228 40.602005 3.39434814 41.69692993 C3.55164926 49.67887674 5.17127103 52.80861347 10.4375 58.75 C14.73284215 62.52151993 18.69314013 63.25449276 24.3125 63.625 C25.38113281 63.69976562 26.44976562 63.77453125 27.55078125 63.8515625 C28.35902344 63.90054688 29.16726563 63.94953125 30 64 C30.08692074 68.27070558 30.14036515 72.54118458 30.1875 76.8125 C30.21263672 78.02744141 30.23777344 79.24238281 30.26367188 80.49414062 C30.27333984 81.65751953 30.28300781 82.82089844 30.29296875 84.01953125 C30.3086792 85.09307861 30.32438965 86.16662598 30.34057617 87.27270508 C30 90 30 90 28.73168945 91.8737793 C27 93 27 93 23 93 C23 85.74 23 78.48 23 71 C18.2884554 71.07863769 18.2884554 71.07863769 13.57739258 71.18017578 C8.64412743 71.22148063 4.97421271 70.80932361 1.26953125 67.4140625 C0.54830078 66.52847656 0.54830078 66.52847656 -0.1875 65.625 C-0.92033203 64.74714844 -0.92033203 64.74714844 -1.66796875 63.8515625 C-4.40980003 60.04033661 -5.24910661 57.30881429 -5.22705078 52.58886719 C-5.22689972 51.50804871 -5.22674866 50.42723022 -5.22659302 49.31365967 C-5.21627045 48.15312073 -5.20594788 46.99258179 -5.1953125 45.796875 C-5.1924826 44.60394836 -5.18965271 43.41102173 -5.18673706 42.1819458 C-5.17554053 38.37119524 -5.15043653 34.56067955 -5.125 30.75 C-5.11496954 28.16667006 -5.1058438 25.58333644 -5.09765625 23 C-5.07560289 16.66658651 -5.04213035 10.33331003 -5 4 C-4.01 3.67 -3.02 3.34 -2 3 C-1.34 2.01 -0.68 1.02 0 0 Z " fill="#E13951" transform="translate(362,71)"/>
<path d="M0 0 C0.66 0.66 1.32 1.32 2 2 C1.071875 2.20625 0.14375 2.4125 -0.8125 2.625 C-4.1426886 3.75057316 -4.1426886 3.75057316 -5.9375 6.5625 C-7.3317943 11.07345213 -7.4655564 14.47943 -6 19 C-3.53535676 22.36850243 -0.58786507 25.08145487 2.5 27.875 C4.0768277 29.34738516 5.64993452 30.82376831 7.21875 32.3046875 C7.91935547 32.94390137 8.61996094 33.58311523 9.34179688 34.24169922 C11 36 11 36 12 39 C9 40 9 40 6.75 39 C3.10522644 36.3492556 0.12094239 33.23626589 -3 30 C-3.845625 29.195625 -4.69125 28.39125 -5.5625 27.5625 C-14.57638073 18.08636898 -14.57638073 18.08636898 -15.4375 11.8125 C-14.8661751 6.83381162 -12.74961876 4.22959864 -9 1 C-5.75778445 -0.08073852 -3.39597063 -0.21676408 0 0 Z " fill="#DDE4E9" transform="translate(396,85)"/>
<path d="M0 0 C0.66 0.66 1.32 1.32 2 2 C1.071875 2.20625 0.14375 2.4125 -0.8125 2.625 C-4.17043846 3.74182592 -4.17043846 3.74182592 -5.875 6.6875 C-7.10976388 10.32319366 -7.22881817 13.18636384 -7 17 C-7.66 16.67 -8.32 16.34 -9 16 C-9.40729228 13.67843403 -9.74438677 11.3431213 -10 9 C-10.33 11.31 -10.66 13.62 -11 16 C-11.99 16.33 -12.98 16.66 -14 17 C-15.60127074 13.79745853 -15.40701607 11.54685436 -15 8 C-11.11793198 1.77149213 -7.45490207 -0.47584481 0 0 Z " fill="#E1D2D9" transform="translate(396,85)"/>
<path d="M0 0 C1.08873413 -0.01029488 1.08873413 -0.01029488 2.19946289 -0.02079773 C4.58817339 -0.03903445 6.97622536 -0.0352339 9.36499023 -0.02954102 C11.02978224 -0.03410343 12.69457236 -0.03940918 14.35935974 -0.04542542 C17.84365506 -0.05434965 21.32772106 -0.05194024 24.81201172 -0.04199219 C29.27672611 -0.03048677 33.74065144 -0.050741 38.20526218 -0.07990932 C41.64109825 -0.09825225 45.07674438 -0.09798301 48.51261711 -0.0922718 C50.15885464 -0.09211844 51.80510493 -0.09817506 53.45129585 -0.11056328 C55.75188968 -0.12544107 58.05101468 -0.11482285 60.3515625 -0.09765625 C61.65996597 -0.09749008 62.96836945 -0.09732391 64.31642151 -0.09715271 C68.10849899 0.47972273 69.27980935 1.43599507 71.61108398 4.40405273 C70.43094727 4.08025635 69.25081055 3.75645996 68.03491211 3.42285156 C61.35214147 1.94759627 54.64099347 2.09544668 47.82983398 2.10327148 C46.40694048 2.0993752 44.98404813 2.09503865 43.56115723 2.09028625 C40.59257215 2.08286456 37.6241061 2.08308629 34.65551758 2.08837891 C30.87308835 2.09417753 27.09114819 2.07721372 23.30879974 2.05403423 C20.37462573 2.03922429 17.44056769 2.03843483 14.50636292 2.04154396 C13.11266611 2.0410347 11.71896213 2.03587212 10.32530212 2.02573204 C2.43115773 1.9753188 -4.05703725 2.37529806 -11.38891602 5.40405273 C-11.71891602 4.74405273 -12.04891602 4.08405273 -12.38891602 3.40405273 C-8.18761891 0.36417878 -5.13655592 0.02119825 0 0 Z " fill="#BE5373" transform="translate(375.388916015625,64.595947265625)"/>
<path d="M0 0 C1.32176485 0.90325616 2.63215066 1.82317903 3.9375 2.75 C4.66839844 3.26046875 5.39929688 3.7709375 6.15234375 4.296875 C8.20805399 6.19177915 8.62669176 7.27425729 9 10 C6 10 6 10 4.17578125 8.25 C3.56089844 7.5075 2.94601562 6.765 2.3125 6 C1.68988281 5.2575 1.06726563 4.515 0.42578125 3.75 C-0.04472656 3.1725 -0.51523437 2.595 -1 2 C-0.67 1.34 -0.34 0.68 0 0 Z " fill="#DDD7DE" transform="translate(393,111)"/>
<path d="M0 0 C0.9075 0.185625 1.815 0.37125 2.75 0.5625 C5.68314324 0.95734621 7.2644657 0.94691572 10 0 C9.34 1.65 8.68 3.3 8 5 C4.75791433 4.64950425 3.38472296 4.43778819 1.1875 1.9375 C0.795625 1.298125 0.40375 0.65875 0 0 Z " fill="#EF6C7D" transform="translate(400,87)"/>
</svg>
